<svg viewBox="0 0 174 153" version="1.1" xmlns="http://www.w3.org/2000/svg" xmlns:xlink="http://www.w3.org/1999/xlink">
    <g stroke="none" stroke-width="1" fill="none" fill-rule="evenodd">
        <g fill-rule="nonzero">
            <path d="M41.69,24.98 C39.5442633,24.9804493 37.7592658,23.3301584 37.5916921,21.1909752 C37.4241184,19.0517919 38.9303671,17.1436801 41.05,16.81 L57.53,14.19 C59.7150436,13.9409399 61.7089664,15.4560378 62.0544332,17.6279262 C62.3999,19.7998145 60.9744817,21.8588027 58.82,22.3 L42.34,24.92 C42.1249844,24.9537264 41.9076441,24.9704449 41.69,24.97 M89.45,0.97 L7.29,13.97 L0.38,143.8 L72.53,143.8 L76.67,120.42 C75.7383037,120.605043 74.789816,120.692183 73.84,120.68 L31.42,120.68 C24.31,120.68 23.04,117.58 23.04,109.9 C23.04,80.42 62.85,82.02 62.85,62.17 C62.85,55.75 58.03,51.61 51.03,51.61 C44.61,51.61 40.36,54.94 40.36,58.03 L40.36,61.59 L26.83,61.59 L26.83,53.59 C26.83,42.81 41.05,37.87 51.61,37.87 C65.83,37.87 78,46.82 78,61.96 C78,89.49 38.65,91.1 38.65,105.9 C38.65,107.39 39.57,107.96 41.75,107.96 L65.61,107.96 C66.2973321,108.029595 66.9795438,107.786548 67.468046,107.298046 C67.9565483,106.809544 68.1995954,106.127332 68.13,105.44 L68.13,100.51 L80.23,100.51 L93.91,23.3 L89.46,1" id="Shape" fill="#4B4B4C"></path>
            <path d="M130.19,76.51 L129.96,76.51 C129.96,76.51 127.67,80.87 125.6,83.85 L112.87,102.66 C110.69,105.76 108.74,108.05 108.74,108.05 L108.74,108.3 C108.74,108.3 112.07,107.96 115.85,107.96 L129.62,107.96 L129.62,85.3 C129.62,81.3 130.19,76.47 130.19,76.47 M93.02,120.64 L93.02,111.12 L126.75,59.72 L144.42,59.72 L144.42,107.91 L156.93,107.91 L156.93,120.64 L144.42,120.64 L144.42,141.17 L129.42,141.17 L129.42,120.68 L93.02,120.68 M138.53,42.3 L138.27,42.3 L121.62,41.3 C119.417473,41.1471948 117.729162,39.2815601 117.796361,37.0747613 C117.863559,34.8679625 119.662256,33.1085095 121.87,33.09 L122.13,33.09 L138.78,34.09 C140.982527,34.2428052 142.670838,36.1084399 142.603639,38.3152387 C142.536441,40.5220375 140.737744,42.2814905 138.53,42.3 M93.91,23.3 L93.91,23.3 L80.23,100.48 L76.7,120.41 L72.53,143.8 L70.94,152.8 L173.88,152.8 L166.21,29.44 L93.91,23.3" id="Shape" fill="#75BE4B"></path>
        </g>
    </g>
</svg>
